<svg xmlns="http://www.w3.org/2000/svg" width="50" height="50" viewBox="0 0 50 50">
  <g id="copy" transform="translate(20939 14245)">
    <rect id="Rectangle_1800" data-name="Rectangle 1800" width="50" height="50" transform="translate(-20939 -14245)" fill="none"/>
    <path id="copy-2" data-name="copy" d="M31.407,2H15.243A6.142,6.142,0,0,0,9.108,8.135v.974H8.135A6.142,6.142,0,0,0,2,15.243V31.407a6.142,6.142,0,0,0,6.135,6.135H24.3a6.124,6.124,0,0,0,6.054-5.331h1.055a6.142,6.142,0,0,0,6.135-6.135V8.135A6.142,6.142,0,0,0,31.407,2Zm2.581,24.076a2.583,2.583,0,0,1-2.581,2.581h-.974V15.243A6.142,6.142,0,0,0,24.3,9.108H12.663V8.135a2.583,2.583,0,0,1,2.581-2.581H31.407a2.583,2.583,0,0,1,2.581,2.581Z" transform="translate(-20934 -14240)"/>
  </g>
</svg>
