<svg xmlns="http://www.w3.org/2000/svg" width="50" height="50" viewBox="0 0 50 50">
  <g id="messenger" transform="translate(20920 13738)">
    <g id="Layer_2" data-name="Layer 2" transform="translate(-20913 -13731)">
      <g id="_06.messenger" data-name="06.messenger">
        <circle id="background" cx="17.77" cy="17.77" r="17.77" fill="#0084ff"/>
        <g id="icon" transform="translate(6.664 7.068)">
          <path id="Path_51895" data-name="Path 51895" d="M55.213,45.284c0,5.68-4.974,10.284-11.106,10.284a11.961,11.961,0,0,1-3.186-.43l-3.782,2.074V53.291A9.986,9.986,0,0,1,33,45.284C33,39.6,37.974,35,44.106,35S55.213,39.606,55.213,45.284Z" transform="translate(-33 -35)" fill="#fff"/>
          <path id="Path_51896" data-name="Path 51896" d="M66.548,71.67l-6.072,6.442L57.649,75.1,52.13,78.114,58.2,71.67l2.9,3.015Z" transform="translate(-48.267 -64.265)" fill="#2196f3"/>
        </g>
      </g>
    </g>
    <rect id="Rectangle_1804" data-name="Rectangle 1804" width="50" height="50" transform="translate(-20920 -13738)" fill="none"/>
  </g>
</svg>
