<svg xmlns="http://www.w3.org/2000/svg" width="50" height="50" viewBox="0 0 50 50">
  <g id="twitter" transform="translate(20789 13738)">
    <g id="Layer_2" data-name="Layer 2" transform="translate(-20782 -13731)">
      <g id="Color">
        <g id="_04.Twitter" data-name="04.Twitter">
          <circle id="Background" cx="17.77" cy="17.77" r="17.77" fill="#03a9f4"/>
          <path id="Icon" d="M49.814,38.208a9.82,9.82,0,0,1-2.719.746,4.69,4.69,0,0,0,2.076-2.609,9.427,9.427,0,0,1-2.993,1.143,4.718,4.718,0,0,0-8.165,3.227,4.88,4.88,0,0,0,.11,1.076,13.365,13.365,0,0,1-9.729-4.936,4.723,4.723,0,0,0,1.452,6.313,4.658,4.658,0,0,1-2.132-.582v.051A4.742,4.742,0,0,0,31.5,47.271a4.707,4.707,0,0,1-1.237.154,4.208,4.208,0,0,1-.9-.079,4.767,4.767,0,0,0,4.412,3.287,9.491,9.491,0,0,1-5.845,2.013,8.523,8.523,0,0,1-1.129-.065A13.441,13.441,0,0,0,47.483,41.269c0-.208,0-.409-.016-.61a9.39,9.39,0,0,0,2.348-2.45Z" transform="translate(-20.534 -27.577)" fill="#fff"/>
        </g>
      </g>
    </g>
    <rect id="Rectangle_1806" data-name="Rectangle 1806" width="50" height="50" transform="translate(-20789 -13738)" fill="none"/>
  </g>
</svg>
