<svg xmlns="http://www.w3.org/2000/svg" width="50" height="50" viewBox="0 0 50 50">
  <g id="whatsapp" transform="translate(21028 14046)">
    <g id="Layer_2" data-name="Layer 2" transform="translate(-21021 -14039)">
      <g id="_09.whatsapp" data-name="09.whatsapp">
        <circle id="background" cx="17.77" cy="17.77" r="17.77" fill="#29a71a"/>
        <g id="icon" transform="translate(6.754 6.669)">
          <path id="Path_51892" data-name="Path 51892" d="M52.3,36.29A11.019,11.019,0,0,0,34.645,49.038l-1.169,5.676a.42.42,0,0,0,.067.329A.426.426,0,0,0,34,55.22L39.558,53.9A11.017,11.017,0,0,0,52.3,36.29ZM50.564,50.135a8.631,8.631,0,0,1-9.939,1.615l-.775-.384-3.411.808.01-.042.707-3.433-.38-.749A8.627,8.627,0,0,1,50.564,37.936a.461.461,0,0,0,.044.044A8.627,8.627,0,0,1,50.564,50.135Z" transform="translate(-33.447 -33.024)" fill="#fff"/>
          <path id="Path_51893" data-name="Path 51893" d="M71.861,70.15a3.583,3.583,0,0,1-1.908,1.664c-1.454.351-3.685.012-6.462-2.577l-.034-.03c-2.441-2.264-3.075-4.148-2.922-5.642a3.571,3.571,0,0,1,1.387-2.116.794.794,0,0,1,1.242.285l.9,2.019a.79.79,0,0,1-.1.808l-.454.59a.781.781,0,0,0-.071.872,8.49,8.49,0,0,0,1.541,1.71,8.992,8.992,0,0,0,2.134,1.529.771.771,0,0,0,.846-.178l.527-.531a.808.808,0,0,1,.788-.2l2.134.606a.808.808,0,0,1,.452,1.193Z" transform="translate(-55.048 -55.558)" fill="#fff"/>
        </g>
      </g>
    </g>
    <rect id="Rectangle_1803" data-name="Rectangle 1803" width="50" height="50" transform="translate(-21028 -14046)" fill="none"/>
  </g>
</svg>
